<svg version="1.1" id="Icons" xmlns="http://www.w3.org/2000/svg" xmlns:xlink="http://www.w3.org/1999/xlink" viewBox="0 0 32.00 32.00" xml:space="preserve" width="213px" height="213px" fill="#000000"><g id="SVGRepo_bgCarrier" stroke-width="0" transform="translate(1.7599999999999998,1.7599999999999998), scale(0.89)"></g><g id="SVGRepo_tracerCarrier" stroke-linecap="round" stroke-linejoin="round"></g><g id="SVGRepo_iconCarrier"> <style type="text/css"> .st0{fill:none;stroke:#FFC000;stroke-width:2.016;stroke-linecap:round;stroke-linejoin:round;stroke-miterlimit:10;} </style> <circle class="st0" cx="9" cy="7" r="5"></circle> <circle class="st0" cx="19" cy="7" r="5"></circle> <path class="st0" d="M21,25H7c-1.1,0-2-0.9-2-2v-6c0-1.1,0.9-2,2-2h14c1.1,0,2,0.9,2,2v6C23,24.1,22.1,25,21,25z"></path> <polygon class="st0" points="29,25 23,22 23,18 29,15 "></polygon> <polyline class="st0" points="10,31 14,25 18,31 "></polyline> <circle class="st0" cx="9" cy="7" r="1"></circle> <circle class="st0" cx="19" cy="7" r="1"></circle> </g></svg>